<svg xmlns="http://www.w3.org/2000/svg" width="300" height="300" viewBox="0 0 30.253 30.253" shape-rendering="geometricPrecision" text-rendering="geometricPrecision" image-rendering="optimizeQuality" fill-rule="evenodd" clip-rule="evenodd"><defs><style>.fil4{fill:none}.fil1{fill:#1f1a17}.fil5{fill:#fff}.fil3{fill:#781e19}</style><clipPath id="id0"><path d="M11.319 5.966h7.757a4.822 4.822 0 0 1 4.808 4.807v13.613c0 .534-.436.97-.97.97H7.401a.972.972 0 0 1-.97-.97V10.853c0-2.688 2.2-4.887 4.888-4.887z"/></clipPath><clipPath id="id1"><path d="M8.48 10.63h13.574v8.725H8.48V10.63z"/></clipPath></defs><g id="Слой_x0020_1"><path fill="#dededd" d="M0 0h30.253v30.253H0z"/><g id="_469058240"><rect id="_469059176" class="fil1" x="19.076" y="21.479" width="3.879" height="5.817" rx="1.261" ry="1.261"/><rect id="_469059272" class="fil1" x="7.748" y="21.479" width="3.879" height="5.817" rx="1.261" ry="1.261"/><rect id="_469059368" class="fil1" transform="matrix(1.2751 -.86055 .86064 1.27497 10.712 3.46)" width="1.261" height="3.782" rx=".63" ry=".63"/><rect id="_469059464" class="fil1" transform="matrix(1.2751 -.86055 .86064 1.27497 14.59 3.46)" width="1.261" height="3.782" rx=".63" ry=".63"/><path id="_469059560" d="M11.319 5.966h7.757a4.822 4.822 0 0 1 4.808 4.807v13.613c0 .534-.436.97-.97.97H7.401a.972.972 0 0 1-.97-.97V10.853c0-2.688 2.2-4.887 4.888-4.887z" fill="#eb8846"/><g clip-path="url(#id0)"><path id="_469059704" class="fil3" d="M4.535 17.599h21.332v7.757H4.535z"/></g><path class="fil4" d="M11.319 5.966h7.757a4.822 4.822 0 0 1 4.808 4.807v13.613c0 .534-.436.97-.97.97H7.401a.972.972 0 0 1-.97-.97V10.853c0-2.688 2.2-4.887 4.888-4.887z"/><ellipse id="_469059680" class="fil5" cx="9.824" cy="21.963" rx="1.454" ry="1.454"/><path id="_469059872" class="fil5" d="M8.48 10.63h13.574v8.725H8.48z"/><g clip-path="url(#id1)"><path id="_469060016" class="fil3" d="M14.216 10.417h1.939v10.665h-1.939z"/></g><path class="fil4" d="M8.48 10.63h13.574v8.725H8.48z"/><path id="_469059992" class="fil5" d="M11.387 7.904h7.757v.97h-7.757z"/><ellipse id="_469060184" class="fil5" cx="20.491" cy="21.963" rx="1.454" ry="1.454"/></g></g></svg>